<svg width="32" height="32" viewBox="0 0 32 32" fill="none" xmlns="http://www.w3.org/2000/svg">
  <!-- Clipboard body -->
  <rect x="7" y="5" width="18" height="23" rx="3" fill="currentColor" fill-opacity="0.2"/>

  <!-- Inner paper -->
  <rect x="9" y="9" width="14" height="17" rx="2" fill="currentColor" fill-opacity="0.1"/>

  <!-- Clipboard clip top -->
  <rect x="11" y="3" width="10" height="5" rx="2" fill="currentColor"/>
  <rect x="13" y="5" width="6" height="2" rx="1" fill="currentColor" fill-opacity="0.3"/>

  <!-- EKG/Heartbeat line - the signature surgical element -->
  <path
    d="M11 18H13L14 15L16 21L18 13L20 19L21 18H23"
    stroke="currentColor"
    stroke-width="1.5"
    stroke-linecap="round"
    stroke-linejoin="round"
    fill="none"
  />

  <!-- Surgical scalpel -->
  <path
    d="M22 7L25 10L26.5 8.5C27 8 27 7 26.5 6.5C26 6 25 6 24.5 6.5L22 7Z"
    fill="currentColor"
  />
  <path
    d="M22 7L17 12"
    stroke="currentColor"
    stroke-width="1.5"
    stroke-linecap="round"
  />
</svg>
